<?xml version="1.0" encoding="utf-8"?>
<!-- Generator: Adobe Illustrator 15.1.0, SVG Export Plug-In . SVG Version: 6.00 Build 0)  -->
<!DOCTYPE svg PUBLIC "-//W3C//DTD SVG 1.1//EN" "http://www.w3.org/Graphics/SVG/1.1/DTD/svg11.dtd">
<svg version="1.1" id="Layer_1" xmlns="http://www.w3.org/2000/svg" xmlns:xlink="http://www.w3.org/1999/xlink" x="0px" y="0px"
	 width="566.93px" height="566.93px" viewBox="0 0 566.93 566.93" enable-background="new 0 0 566.93 566.93" xml:space="preserve">
<path fill="#F15A29" stroke="#BE1E2D" stroke-width="3" stroke-miterlimit="10" d="M415.073,356.225
	c0,0,47.899,54.652,55.899,89.652s-126.913,63-185.957,63c-59.043,0-182.043-13-173.043-60s69.317-140.449,69.317-140.449"/>
<path fill="#BE1E2D" d="M431.912,284.254c0,80.952-73.221,151.23-114.184,151.23c-56.389,0-137.482-65.625-137.482-146.576
	c0-80.952,77.924-177.344,123.496-171.068C320.439,120.139,431.912,203.303,431.912,284.254z"/>
<path fill="#FCDDCA" stroke="#603913" stroke-width="3" stroke-miterlimit="10" d="M458.382,252.293
	c0,83.58-84.784,156.139-132.216,156.139c-65.294,0-159.193-67.755-159.193-151.334c0-83.58,90.229-183.102,142.998-176.623
	C329.305,82.85,458.382,168.714,458.382,252.293z"/>
<path fill="#752A15" stroke="#000000" stroke-width="3" stroke-miterlimit="10" d="M172.818,269.067
	c14.16-12.39,23.009-29.205,24.779-13.275c1.26,11.343-1.805,19.776,3.042,24.084c7.964,7.078,13-9,13-9s4.312-11.73-4.538-25.354
	c-8.85-13.624-8.849-43.713-3.54-49.022s5.31,10.619,7.964,11.504s7.964-8.85,7.08-29.204s13.274-28.318,23.009-35.398
	s14.518-5.343,18.058-14.193s20.883-43,27.963-43c7.079,0,14.352,24.242,42.671,28.667c28.318,4.425,45.948,7.242,57.545,18.551
	s19.824,16.415,19.824,16.415s-20.928-37.414-35.088-43.608c-14.158-6.194-14.158-6.194-14.158-6.194s36.674,11.975,39.291,12.518
	c6.625,1.375,1.416-2.783,1.416-2.783s-24.778-21.031-38.053-24.232s-13.274-3.201-13.274-3.201s29.411,3.592,28.526-18.532
	s-5-16.412-5-16.412s-5.221,25.565-29.115,22.911c-23.894-2.655-23.615-1.241-23.615-1.241l19.784-5.523
	c0,0-17.535-10.406-28.837-8.636c-11.301,1.77-11.301,1.77-11.301,1.77l8.055-20.467c0,0-24.011,2.726-39.055,16
	S253.35,75.262,253.35,75.262s-14.463-38.958-18.043-23.385c0,0-3.196,20.729-1.426,38.429c0,0-25.926-17.16-39.823-9.734
	c-19.875,10.621-6.751,26.972-6.751,26.972s2.969-6.961,8.782-4.516c8.197,3.448,0.885,8.849,0.885,8.849
	s-18.844,2.323-25.039,13.827s2.423,24.839,2.423,24.839s7.191-9.988,11.616-7.333s-8.957,4.258-15.533,38.926
	c-5.55,29.26-2.808,42.189-9.003,44.074s16.285,4.803,16.285,4.803l-4.903,3.813l4.903,4.594l-4.903,10.178l-7.08-4.075"/>
<g>
	<path fill="#FCDDCA" d="M189.981,251.119c-0.885-9.733-9.734-22.124-20.354-23.009c-13.274-0.885-15.044,11.505-16.814,22.124
		c-1.77,15.045,4.424,38.938,23.894,33.629"/>
	<g>
		<path fill="#603913" d="M191.913,250.602c-1.363-11.168-10.026-22.388-21.606-23.856c-11.42-1.449-16.475,8.383-18.434,17.876
			c-3.525,17.084,1.524,46.307,25.177,40.521c2.398-0.587,1.697-3.14-0.686-2.557c-18.421,4.506-23.637-20.234-21.407-33.654
			c1.402-8.435,3.099-19.809,13.991-19.456c10.422,0.338,17.985,13.014,19.102,22.161
			C188.26,253.358,192.134,252.412,191.913,250.602L191.913,250.602z"/>
	</g>
</g>
<circle fill="#FFFFFF" stroke="#000000" stroke-width="3" stroke-miterlimit="10" cx="279.774" cy="182.137" r="22"/>
<circle fill="#FFFFFF" stroke="#000000" stroke-width="3" stroke-miterlimit="10" cx="333.824" cy="179.265" r="20.312"/>
<path d="M283.057,190.441c-1.813,0-3.283-1.47-3.283-3.283c0-1.334,0.799-2.477,1.941-2.99c-0.614-0.19-1.266-0.292-1.941-0.292
	c-3.626,0-6.566,2.939-6.566,6.565c0,3.626,2.939,6.566,6.566,6.566c3.626,0,6.565-2.939,6.565-6.566
	c0-0.676-0.103-1.328-0.293-1.941C285.533,189.643,284.391,190.441,283.057,190.441z"/>
<path d="M337.107,185.557c-1.813,0-3.283-1.47-3.283-3.283c0-1.334,0.799-2.477,1.941-2.99c-0.613-0.19-1.266-0.292-1.941-0.292
	c-3.627,0-6.566,2.939-6.566,6.565c0,3.626,2.939,6.566,6.566,6.566c3.626,0,6.565-2.939,6.565-6.566
	c0-0.676-0.103-1.328-0.292-1.941C339.584,184.758,338.441,185.557,337.107,185.557z"/>
<path fill="#FCDDCA" stroke="#603913" stroke-width="3" stroke-miterlimit="10" d="M365.473,181.876c0,0-9.679-3.233-20.658,7.849
	s-1.324,13.302-10.398,18.967"/>
<path fill="#FCDDCA" stroke="#603913" stroke-width="3" stroke-miterlimit="10" d="M294.727,224.455
	c-7.492-5.318-11.626-12.927-10.045-20.26c2.406-11.152,17.123-17.44,32.872-14.043c15.749,3.396,26.565,15.191,24.16,26.344
	c-1.46,6.77-7.456,11.747-15.466,13.854"/>
<ellipse transform="matrix(0.9573 0.289 -0.289 0.9573 70.7321 -63.3089)" fill="#F6B1B3" cx="249.774" cy="207.894" rx="17.114" ry="8.58"/>
<ellipse transform="matrix(-0.9573 0.289 -0.289 -0.9573 776.4211 281.5759)" fill="#F6B1B3" cx="367.425" cy="198.103" rx="17.114" ry="8.58"/>
<ellipse fill="#F6B1B3" cx="312.083" cy="219.243" rx="30.308" ry="17.14"/>
<path fill="none" stroke="#603913" stroke-width="3" stroke-miterlimit="10" d="M294.951,225.444
	c-7.492-5.318-11.625-12.927-10.044-20.26c2.405-11.152,17.122-17.44,32.872-14.043c15.748,3.396,26.565,15.191,24.16,26.344
	c-1.461,6.77-7.457,11.747-15.467,13.854"/>
<path fill="#FFFFFF" d="M323.971,197.644c0,2.462-3.134,4.458-7,4.458s-7-1.996-7-4.458s3.134-4.458,7-4.458
	C315.504,193.186,323.971,193.321,323.971,197.644z"/>
<path fill="none" stroke="#603913" stroke-width="3" stroke-miterlimit="10" d="M265.538,228.065c0,0-12.895-2.174-20.731,8.317"/>
<path stroke="#000000" stroke-width="3" stroke-miterlimit="10" d="M269.252,144.875c0,0,9.807-16,15.096-16
	c5.288,0,5.288,0,5.288,0v-11.333c0,0-14.837,0-17.61,13.667S269.252,144.875,269.252,144.875z"/>
<path stroke="#000000" stroke-width="3" stroke-miterlimit="10" d="M338.416,144.875c0,0-7.164-11.688-11.027-11.688
	s-3.863,0-3.863,0v-8.279c0,0,10.838,0,12.864,9.983C338.416,144.875,338.416,144.875,338.416,144.875z"/>
<path fill="#383839" stroke="#603913" stroke-width="3" stroke-miterlimit="10" d="M357.113,314.703c-4-2-4-2-4-2
	s-12.385,2.391-2.118-22.667c5.929-14.47,8.43-20.576,9.488-23.159c-1.894,1.604-3.976,3.296-6.288,5.094
	c-33.176,25.789-73.289,14.891-87.967-1.772c-1.199,15.199-4.308,84.776,40.885,70.505
	C357.779,324.703,361.113,316.703,357.113,314.703z"/>
<g>
	<defs>
		<path id="SVGID_1_" d="M267.719,266.206c0,0-10.044,89.393,40.623,73.393c50.666-16,54-24,50-26s-4-2-4-2
			s-12.385,2.391-2.118-22.667s10.267-25.058,10.267-25.058"/>
	</defs>
	<clipPath id="SVGID_2_">
		<use xlink:href="#SVGID_1_"  overflow="visible"/>
	</clipPath>
	<ellipse clip-path="url(#SVGID_2_)" fill="#BE1E2D" cx="290.635" cy="335.205" rx="21.781" ry="18"/>
</g>
<circle fill="#FFFFFF" cx="385.464" cy="339.043" r="8.838"/>
<path fill="#F6B1B3" d="M322.23,372.466c2.09,9.233,17.688,24.193,37.371,19.738c19.685-4.455,39.402-30.1,37.313-39.333
	c-2.09-9.232-14.74,16.878-34.425,21.333C342.807,378.659,320.142,363.233,322.23,372.466z"/>
<path fill="none" stroke="#603913" stroke-width="3" stroke-miterlimit="10" d="M306.301,365.538c0,0,61.334,33.334,83.334-5.333
	s-12.324-38-18.162-36s-5.838,2-5.838,2l5.838-9.334"/>
<path fill="#FCDDCA" stroke="#603913" stroke-width="3" stroke-miterlimit="10" d="M248.387,192.503c0,0,9.679-3.233,20.658,7.849
	c5.489,5.541,5.821,8.866,5.914,11.515"/>
<path fill="#FFFFFF" d="M312.492,286.783v9.438c0,5.479-3.455,9.919-7.718,9.919l0,0c-4.263,0-7.718-4.44-7.718-9.919v-9.438"/>
<path fill="#FFFFFF" d="M331.091,285.867l1.219,9.359c0.708,5.433-2.146,10.281-6.372,10.832l0,0
	c-4.227,0.551-8.226-3.406-8.934-8.839l-1.219-9.358"/>
<path fill="none" stroke="#603913" stroke-width="3" stroke-miterlimit="10" d="M250.774,231.351c0,0,10.862,11.857,9.976,24.776
	c-1.525,22.216,51.648,48.42,93.674,15.75c42.027-32.669,12.162-32.287,8.477-42.812"/>
<path fill="#FFFFFF" d="M407.473,156.377c0,0,86.5,67,28.5,167.5c0,0,18.248-43.557,14.465-89.009
	C448.262,208.734,407.473,156.377,407.473,156.377z"/>
<path fill="#F6B1B3" d="M172.723,286.783c0,0,18.5,71.094,94.74,104.757c0,0-61.665-42.843-80.076-85.904
	c-6.097-14.259-6.097-21.017-6.097-21.017"/>
<path fill="#F6B1B3" d="M161.437,259.907c0,8.001,4.396,14.486,9.817,14.486s-5.542-14.196,1.469-18.052
	c7.021-3.861,3.953-10.921-1.469-10.921S161.437,251.906,161.437,259.907z"/>
<path fill="none" stroke="#603913" stroke-width="3" stroke-miterlimit="10" d="M167.075,245.646
	c8.102-2.731,15.898,20.231,13.898,25.231"/>
<path fill="none" stroke="#603913" stroke-width="3" stroke-miterlimit="10" d="M178.274,256.046c0,0-10.039-4.515-7.39,6.459
	c0.59,2.443,1.09,4.103,1.509,5.204"/>
</svg>
